<svg aria-hidden="true" style="position: absolute; width: 0; height: 0; overflow: hidden;" version="1.1" xmlns="http://www.w3.org/2000/svg" xmlns:xlink="http://www.w3.org/1999/xlink">
<defs>
<symbol id="icon-menu" viewBox="0 0 32 32">
<path d="M4 24h24v-2.667h-24v2.667zM4 17.333h24v-2.667h-24v2.667zM4 8v2.667h24v-2.667h-24z"></path>
</symbol>
<symbol id="icon-logo" viewBox="0 0 32 32">
<path fill="#316099" style="fill: var(--color1, #316099)" d="M21.333 16c0 5.891-4.776 10.667-10.667 10.667s-10.667-4.776-10.667-10.667c0-5.891 4.776-10.667 10.667-10.667s10.667 4.776 10.667 10.667z"></path>
<path fill="#fff" style="fill: var(--color2, #fff); stroke: var(--color1, #316099)" stroke="#316099" stroke-linejoin="miter" stroke-linecap="butt" stroke-miterlimit="4" stroke-width="1.3333" d="M31.333 16c0 5.523-4.477 10-10 10s-10-4.477-10-10c0-5.523 4.477-10 10-10s10 4.477 10 10z"></path>
<path fill="#316099" style="fill: var(--color1, #316099)" d="M21.096 11.331h2.702l3.763 9.336h-2.214l-0.658-1.615h-4.505l-0.638 1.615h-2.214l3.763-9.336zM20.882 17.346h3.118l-1.491-3.932h-0.137l-1.491 3.932z"></path>
</symbol>
<symbol id="icon-arrow" viewBox="0 0 32 32">
<path d="M16 5.333l-1.88 1.88 7.44 7.453h-16.227v2.667h16.227l-7.44 7.453 1.88 1.88 10.667-10.667-10.667-10.667z"></path>
</symbol>
<symbol id="icon-logo-footer" viewBox="0 0 32 32">
<path fill="#98c3e8" style="fill: var(--color1, #98c3e8)" d="M21.333 16c0 5.891-4.776 10.667-10.667 10.667s-10.667-4.776-10.667-10.667c0-5.891 4.776-10.667 10.667-10.667s10.667 4.776 10.667 10.667z"></path>
<path fill="#fff" style="fill: var(--color2, #fff); stroke: var(--color3, #316099)" stroke="#316099" stroke-linejoin="miter" stroke-linecap="butt" stroke-miterlimit="4" stroke-width="1.3333" d="M31.333 16c0 5.523-4.477 10-10 10s-10-4.477-10-10c0-5.523 4.477-10 10-10s10 4.477 10 10z"></path>
<path fill="#316099" style="fill: var(--color3, #316099)" d="M20.43 11.997h2.702l3.763 9.336h-2.214l-0.658-1.615h-4.505l-0.638 1.615h-2.214l3.763-9.336zM20.215 18.013h3.118l-1.491-3.932h-0.137l-1.491 3.932z"></path>
</symbol>
</svg>
</defs>
</svg>
